HIERARCHY
ROOT Hips
{
	OFFSET 0.000000 0.000000 0.000000
	CHANNELS 6 Xposition Yposition Zposition Zrotation Yrotation Xrotation 
	JOINT LHipJoint
	{
		OFFSET 0.000000 0.000000 0.000000
		CHANNELS 3 Zrotation Yrotation Xrotation
		JOINT LeftUpLeg
		{
			OFFSET 1.363060 -1.794630 0.839290
			CHANNELS 3 Zrotation Yrotation Xrotation
			JOINT LeftLeg
			{
				OFFSET 2.448110 -6.726130 0.000000
				CHANNELS 3 Zrotation Yrotation Xrotation
				JOINT LeftFoot
				{
					OFFSET 2.562200 -7.039590 0.000000
					CHANNELS 3 Zrotation Yrotation Xrotation
					JOINT LeftToeBase
					{
						OFFSET 0.157640 -0.433110 2.322550
						CHANNELS 3 Zrotation Yrotation Xrotation
						End Site
						{
							OFFSET 0.000000 0.000000 0.000000
						}
					}
				}
			}
		}
	}
	JOINT RHipJoint
	{
		OFFSET 0.000000 0.000000 0.000000
		CHANNELS 3 Zrotation Yrotation Xrotation
		JOINT RightUpLeg
		{
			OFFSET -1.305520 -1.794630 0.839290
			CHANNELS 3 Zrotation Yrotation Xrotation
			JOINT RightLeg
			{
				OFFSET -2.542530 -6.985550 0.000000
				CHANNELS 3 Zrotation Yrotation Xrotation
				JOINT RightFoot
				{
					OFFSET -2.568260 -7.056230 0.000000
					CHANNELS 3 Zrotation Yrotation Xrotation
					JOINT RightToeBase
					{
						OFFSET -0.164730 -0.452590 2.363150
						CHANNELS 3 Zrotation Yrotation Xrotation
						End Site
						{
							OFFSET 0.000000 0.000000 0.000000
						}
					}
				}
			}
		}
	}
	JOINT LowerBack
	{
		OFFSET 0.000000 0.000000 0.000000
		CHANNELS 3 Zrotation Yrotation Xrotation
		JOINT Spine
		{
			OFFSET 0.028270 2.035590 -0.193380
			CHANNELS 3 Zrotation Yrotation Xrotation
			JOINT Spine1
			{
				OFFSET 0.056720 2.048850 -0.042750
				CHANNELS 3 Zrotation Yrotation Xrotation
				JOINT Neck
				{
					OFFSET 0.000000 0.000000 0.000000
					CHANNELS 3 Zrotation Yrotation Xrotation
					JOINT Neck1
					{
						OFFSET -0.054170 1.746240 0.172020
						CHANNELS 3 Zrotation Yrotation Xrotation
						JOINT Head
						{
							OFFSET 0.104070 1.761360 -0.123970
							CHANNELS 3 Zrotation Yrotation Xrotation
							End Site
							{
								OFFSET 0.000000 0.000000 0.000000
							}
						}
					}
				}
				JOINT LeftShoulder
				{
					OFFSET 0.000000 0.000000 0.000000
					CHANNELS 3 Zrotation Yrotation Xrotation
					JOINT LeftArm
					{
						OFFSET 3.362410 1.200890 -0.311210
						CHANNELS 3 Zrotation Yrotation Xrotation
						JOINT LeftForeArm
						{
							OFFSET 4.983000 -0.000000 -0.000000
							CHANNELS 3 Zrotation Yrotation Xrotation
							JOINT LeftHand
							{
								OFFSET 3.483560 -0.000000 -0.000000
								CHANNELS 3 Zrotation Yrotation Xrotation
								JOINT LeftFingerBase
								{
									OFFSET 0.000000 0.000000 0.000000
									CHANNELS 3 Zrotation Yrotation Xrotation
									JOINT LeftHandIndex1
									{
										OFFSET 0.715260 -0.000000 -0.000000
										CHANNELS 3 Zrotation Yrotation Xrotation
										End Site
										{
											OFFSET 0.000000 0.000000 0.000000
										}
									}
								}
								JOINT LThumb
								{
									OFFSET 0.000000 0.000000 0.000000
									CHANNELS 3 Zrotation Yrotation Xrotation
									End Site
									{
										OFFSET 0.000000 0.000000 0.000000
									}
								}
							}
						}
					}
				}
				JOINT RightShoulder
				{
					OFFSET 0.000000 0.000000 0.000000
					CHANNELS 3 Zrotation Yrotation Xrotation
					JOINT RightArm
					{
						OFFSET -3.136600 1.374050 -0.404650
						CHANNELS 3 Zrotation Yrotation Xrotation
						JOINT RightForeArm
						{
							OFFSET -5.241900 -0.000000 -0.000000
							CHANNELS 3 Zrotation Yrotation Xrotation
							JOINT RightHand
							{
								OFFSET -3.444170 -0.000000 -0.000000
								CHANNELS 3 Zrotation Yrotation Xrotation
								JOINT RightFingerBase
								{
									OFFSET 0.000000 0.000000 0.000000
									CHANNELS 3 Zrotation Yrotation Xrotation
									JOINT RightHandIndex1
									{
										OFFSET -0.622530 -0.000000 -0.000000
										CHANNELS 3 Zrotation Yrotation Xrotation
										End Site
										{
											OFFSET 0.000000 0.000000 0.000000
										}
									}
								}
								JOINT RThumb
								{
									OFFSET 0.000000 0.000000 0.000000
									CHANNELS 3 Zrotation Yrotation Xrotation
									End Site
									{
										OFFSET 0.000000 0.000000 0.000000
									}
								}
							}
						}
					}
				}
			}
		}
	}
}
MOTION
Frames: 5
Frame Time: 0.008333
4.867340 16.430604 12.804274 6.005861 40.086455 4.368108 -0.354510 2.104136 2.274941 -4.634129 -11.496404 4.686656 12.800957 18.378276 67.330714 -0.183053 -10.261816 -13.138935 0.580800 -4.879800 -13.566100 -5.201850 -3.366043 4.829939 19.504963 24.240404 -35.951680 -16.515188 -18.274589 80.366569 -4.594826 20.587266 -45.214256 -0.476100 4.425000 -12.275500 4.629820 -3.700038 3.680658 -13.130836 -3.946274 19.103457 3.218199 -2.092435 -12.166755 -3.339054 -5.435417 -24.264909 1.656527 -3.765102 44.019339 -0.951500 -0.418000 19.259400 4.665722 -7.345870 0.750065 -78.403006 -38.920275 45.297355 91.594575 -56.200575 -63.263903 1.763323 -0.557838 -24.897530 26.176868 9.190850 4.910500 -7.125000 0.000000 0.000000 -2.014300 41.735700 0.162300 1.079323 10.962714 1.613417 66.943445 6.343993 39.693405 -33.622391 34.501363 -11.198395 -0.219813 -0.407073 -12.003734 -31.208276 -0.933569 0.313100 7.125000 0.000000 0.000000 -3.444400 -30.579500 -1.215000 
4.837622 16.491252 13.153166 6.260602 41.064654 4.502285 -0.346685 2.205190 2.397986 -4.874866 -11.312663 1.811342 13.965288 18.785408 71.117218 -0.216450 -12.492712 -14.971654 0.660600 -5.198400 -14.475300 -5.287183 -3.371284 4.741938 20.159177 23.540486 -34.921741 -16.239541 -18.222779 79.476401 -4.779479 20.203988 -45.930833 -0.488400 4.480900 -12.433600 4.626465 -3.808217 3.666493 -13.562798 -4.049431 18.959199 3.321499 -2.160067 -12.069051 -3.355034 -5.543092 -24.092750 1.694790 -3.933366 43.997931 -0.967400 -0.478600 19.216000 4.705769 -7.382015 0.758910 -78.929716 -39.003583 45.890809 91.826329 -56.231279 -63.562582 1.782738 -0.593051 -24.525805 26.520045 8.987328 4.910100 -7.125000 0.000000 0.000000 -1.699300 41.589400 0.143000 1.122407 10.966888 1.635391 66.872867 5.961164 39.423650 -34.116068 34.943702 -11.521856 -0.226974 -0.398654 -12.279520 -31.411345 -0.887074 0.294900 7.125000 0.000000 0.000000 -3.598400 -30.539800 -1.273000 
4.809207 16.552553 13.501685 6.592478 42.078998 4.714013 -0.350074 2.305100 2.520009 -5.217200 -11.029164 -1.031828 15.054339 19.082144 74.585924 -0.109419 -13.868570 -17.123490 0.864500 -5.928700 -16.577800 -5.370293 -3.382618 4.651999 20.704546 22.755623 -33.987100 -15.974502 -18.163160 78.610309 -4.949119 19.805122 -46.581797 -0.498000 4.524300 -12.556700 4.629308 -3.870818 3.622980 -14.103345 -4.088961 18.795606 3.425950 -2.198712 -11.935396 -3.437006 -5.712906 -23.889222 1.852205 -4.210649 43.977418 -0.945300 -0.569600 19.172300 4.758869 -7.420571 0.768824 -79.570252 -39.092923 46.671869 91.984058 -56.256259 -63.828710 1.793129 -0.628085 -24.093118 26.459886 8.857480 4.848700 -7.125000 0.000000 0.000000 -1.745700 41.470000 0.152100 1.177292 10.983541 1.655288 66.943711 5.479376 38.839671 -34.634350 35.397769 -11.856277 -0.235619 -0.388541 -12.473768 -31.556841 -0.825576 0.267900 7.125000 0.000000 0.000000 -3.705800 -30.485000 -1.316000 
4.778557 16.608543 13.847502 6.936678 43.150757 4.956773 -0.340361 2.394706 2.630755 -5.647726 -10.733370 -3.740760 16.057550 19.283305 77.729838 0.035609 -14.964376 -19.108629 0.924900 -6.127100 -17.153500 -5.423372 -3.408470 4.573083 21.148471 21.902360 -33.179287 -15.713871 -18.102536 77.779732 -5.075420 19.738743 -47.116711 -0.470700 4.400300 -12.205700 4.399678 -3.927207 3.576460 -14.323637 -4.178002 18.693508 3.603024 -2.235368 -11.837517 -3.571491 -5.885389 -23.695093 1.921555 -4.448966 43.936171 -0.943700 -0.669800 19.102400 4.761158 -7.454835 0.768833 -80.365907 -39.106262 47.384786 92.306740 -56.306652 -64.237633 1.810474 -0.663831 -23.801438 26.498599 8.747134 4.821800 -7.125000 0.000000 0.000000 -1.709900 41.392400 0.152200 1.208151 10.993970 1.677538 66.858453 4.947540 38.347342 -35.198327 35.883516 -12.224251 -0.244393 -0.380212 -12.780662 -31.702081 -0.767154 0.241600 7.125000 0.000000 0.000000 -3.812100 -30.432000 -1.358700 
4.751819 16.662205 14.196207 7.124826 44.199795 5.034766 -0.337141 2.476752 2.737320 -6.031007 -10.239695 -6.241008 16.952142 19.411242 80.503884 0.300846 -15.425818 -21.335939 1.018900 -6.421700 -18.013100 -5.477525 -3.424811 4.491539 21.745303 21.032123 -32.316520 -15.465243 -18.036802 76.945610 -5.230732 19.353332 -47.696884 -0.491000 4.493000 -12.467800 4.296307 -3.972160 3.501978 -14.527868 -4.233987 18.662862 3.694391 -2.271931 -11.731293 -3.612713 -6.036341 -23.490278 1.932194 -4.670098 43.903667 -0.979600 -0.757200 19.045400 4.767748 -7.485614 0.762254 -81.038512 -38.988280 48.105714 92.551958 -56.352693 -64.577877 1.825455 -0.704557 -23.609762 26.654988 8.444069 4.735600 -7.125000 0.000000 0.000000 -1.545000 41.122000 0.147800 1.230878 11.000380 1.687140 66.890478 4.405136 37.770242 -35.742509 36.343348 -12.583074 -0.251418 -0.372307 -12.978796 -31.933405 -0.786478 0.262700 7.125000 0.000000 0.000000 -3.991500 -30.468100 -1.419500 
